# xmcd CD database file
#
# Track frame offsets:
#	150
#	20752
#	41352
#
# Disc length: 822 seconds
#
# Revision: 0
# Processed by: cddbd v1.5.1PL0 Copyright (c) Steve Scherf et al.
# Submitted via: CDex 1.51
#
DISCID=1c033403
DTITLE=BON-BON BLANCO - La La 口笛吹いて行こう
DYEAR=2004
DGENRE=JPop
TTITLE0=La La 口笛吹いて行こう
TTITLE1=SUNRISE
TTITLE2=La La 口笛吹いて行こう (Instrumental)
EXTD=YEAR: 2004
EXTT0=
EXTT1=
EXTT2=
PLAYORDER=
